# xmcd CD database file
#
# Track frame offsets:
#	183
#	10953
#	36100
#	49628
#	62273
#	86703
#	98980
#	108440
#	127480
#	148598
#	157578
#	182370
#
# Disc length: 2631 seconds
#
# Revision: 3
# Processed by: cddbd v1.5.2PL0 Copyright (c) Steve Scherf et al.
# Submitted via: CDex 1.51
#
DISCID=950a450c
DTITLE=Eddie Boyd With Fleetwood Mac - 7936 South Rhodes
DYEAR=1993
DGENRE=Blues
TTITLE0=You Got To Reap
TTITLE1=Just The Blues
TTITLE2=She Is Real
TTITLE3=Backslap
TTITLE4=Be Careful
TTITLE5=Ten To One
TTITLE6=The Blues Is Here To Stay
TTITLE7=You Are My Love
TTITLE8=Third Degree
TTITLE9=Thank You Baby
TTITLE10=She's Gone
TTITLE11=I'll Never Stop (I Can't Stop Loving You)
EXTD=YEAR: 1993
EXTT0=
EXTT1=
EXTT2=
EXTT3=
EXTT4=
EXTT5=
EXTT6=
EXTT7=
EXTT8=
EXTT9=
EXTT10=
EXTT11=
PLAYORDER=
